<?xml version="1.0" encoding="iso-8859-1"?>
<!-- Generator: Adobe Illustrator 19.0.0, SVG Export Plug-In . SVG Version: 6.00 Build 0)  -->
<svg version="1.1" id="Layer_1" xmlns="http://www.w3.org/2000/svg" xmlns:xlink="http://www.w3.org/1999/xlink" x="0px" y="0px"
	 viewBox="0 0 511.999 511.999" style="enable-background:new 0 0 511.999 511.999;" xml:space="preserve">
<path style="fill:#FFC61B;" d="M372.94,257.189c-55.451,0-100.564-45.113-100.564-100.565S317.489,56.058,372.94,56.058
	c41.772,0,79.645,26.285,94.246,65.409c2.825,7.569-1.021,15.994-8.591,18.819c-7.567,2.822-15.996-1.021-18.819-8.591
	c-10.352-27.742-37.211-46.381-66.834-46.381c-39.319,0-71.307,31.989-71.307,71.309s31.989,71.309,71.307,71.309
	c8.078,0,14.628,6.549,14.628,14.628C387.569,250.64,381.019,257.189,372.94,257.189z"/>
<path style="fill:#FEE187;" d="M446.794,200.562c-14.992,25.147-42.451,41.999-73.854,41.999c-47.461,0-85.937-38.475-85.937-85.937
	c0-31.453,16.907-58.945,42.119-73.923c-26.961-37.563-71.008-62.038-120.774-62.038c-82.052,0-148.569,66.517-148.569,148.569
	c0,11.032,1.213,21.78,3.495,32.128c-28.544,12.393-48.646,40.883-48.646,73.85l0,0c0,44.251,36.206,80.457,80.457,80.457h321.828
	c44.251,0,80.457-36.206,80.457-80.457l0,0C497.37,241.504,476.359,212.488,446.794,200.562z"/>
<g>
	<path style="fill:#FFC61B;" d="M416.915,370.294H95.085C42.655,370.294,0,327.639,0,275.209c0-33.906,18.085-64.919,46.927-81.913
		c-1.179-7.959-1.774-16.016-1.774-24.065c0-89.986,73.211-163.195,163.197-163.195c52.445,0,102.035,25.472,132.658,68.136
		c2.39,3.331,3.274,7.512,2.434,11.524c-0.838,4.012-3.322,7.49-6.847,9.583c-21.565,12.81-34.961,36.317-34.961,61.346
		c0,39.319,31.989,71.309,71.307,71.309c24.983,0,48.469-13.358,61.289-34.862c3.692-6.194,11.346-8.774,18.036-6.075
		c36.288,14.638,59.734,49.264,59.734,88.213C512,327.639,469.345,370.294,416.915,370.294z M208.351,35.292
		c-73.856,0-133.94,60.085-133.94,133.939c0,9.739,1.061,19.489,3.151,28.98c1.505,6.834-2.041,13.778-8.459,16.566
		c-24.207,10.507-39.845,34.228-39.845,60.431c0,36.298,29.531,65.829,65.829,65.829h321.829c36.298,0,65.829-29.531,65.829-65.828
		c0-23.099-11.938-44.009-31.189-55.907c-18.935,23.645-47.974,37.885-78.614,37.885c-55.451,0-100.564-45.113-100.564-100.565
		c0-29.689,13.358-57.855,35.687-76.8C282.797,51.714,246.49,35.292,208.351,35.292z"/>
	<path style="fill:#FFC61B;" d="M101.99,505.962c-10.069,0-17.364-1.239-18.162-1.379c-6.052-1.069-10.788-5.807-11.858-11.858
		c-0.837-4.741-7.482-47.022,16.909-71.413c15.115-15.115,37.302-18.288,53.252-18.288c10.069,0,17.364,1.239,18.162,1.379
		c6.052,1.069,10.788,5.807,11.858,11.857c0.837,4.741,7.484,47.023-16.909,71.414C140.128,502.789,117.94,505.962,101.99,505.962z
		 M99.84,476.681c0.696,0.016,1.413,0.025,2.15,0.025c8.533,0,24.109-1.262,32.565-9.719c8.253-8.252,9.949-23.545,9.725-34.683
		c-0.695-0.016-1.413-0.025-2.15-0.025c-8.533,0-24.109,1.262-32.565,9.719C101.314,450.248,99.619,465.542,99.84,476.681z"/>
	<path style="fill:#FFC61B;" d="M235.929,505.962c-10.068,0-17.364-1.239-18.162-1.379c-6.052-1.069-10.788-5.807-11.858-11.858
		c-0.837-4.741-7.482-47.022,16.909-71.413c15.115-15.115,37.303-18.288,53.253-18.288c10.068,0,17.364,1.239,18.162,1.379
		c6.052,1.069,10.788,5.807,11.858,11.857c0.837,4.741,7.482,47.022-16.909,71.413C274.067,502.789,251.879,505.962,235.929,505.962
		z M233.779,476.681c0.696,0.016,1.413,0.025,2.15,0.025c8.533,0,24.11-1.262,32.566-9.719c8.252-8.252,9.947-23.544,9.725-34.683
		c-0.696-0.016-1.413-0.025-2.15-0.025c-8.533,0-24.11,1.262-32.566,9.719C235.253,450.248,233.558,465.542,233.779,476.681z"/>
	<path style="fill:#FFC61B;" d="M369.871,505.962c-10.069,0-17.364-1.239-18.162-1.379c-6.052-1.069-10.788-5.807-11.858-11.858
		c-0.837-4.741-7.484-47.023,16.909-71.414c15.114-15.115,37.302-18.287,53.252-18.287c10.068,0,17.363,1.239,18.162,1.379
		c6.052,1.069,10.788,5.807,11.857,11.857c0.837,4.741,7.482,47.022-16.909,71.413C408.008,502.789,385.821,505.962,369.871,505.962
		z M367.72,476.681c0.695,0.016,1.413,0.025,2.15,0.025c8.533,0,24.108-1.262,32.565-9.719c8.252-8.252,9.947-23.544,9.725-34.683
		c-0.696-0.016-1.413-0.025-2.15-0.025c-8.533,0-24.108,1.262-32.565,9.719C369.193,450.248,367.498,465.542,367.72,476.681z"/>
</g>
<g>
</g>
<g>
</g>
<g>
</g>
<g>
</g>
<g>
</g>
<g>
</g>
<g>
</g>
<g>
</g>
<g>
</g>
<g>
</g>
<g>
</g>
<g>
</g>
<g>
</g>
<g>
</g>
<g>
</g>
</svg>
